<?xml version="1.0" encoding="UTF-8" standalone="no"?>
<svg xmlns="http://www.w3.org/2000/svg"
            xmlns:xlink="http://www.w3.org/1999/xlink"
            version="1.1"
            baseProfile="full"
            viewBox="-4 -4 29 29" 
            width="116"
            height="116"
            id="qrcode-b7b2c0ef86199a1d5f68a68742fe41ee">
<symbol id="tracker"><path d="m 0 7 0 7 7 0 0 -7 -7 0 z m 1 1 5 0 0 5 -5 0 0 -5 z m 1 1 0 3 3 0 0 -3 -3 0 z" style="fill:#000000;stroke:none"></path></symbol>
<use x="0" y="-7" xlink:href="#tracker"></use>
<use x="0" y="7" xlink:href="#tracker"></use>
<use x="14" y="-7" xlink:href="#tracker"></use>
<path d="M10,6 h1v4h-1v-1h-1v-1h-1v-2h1v1h1v-1 M14,8 h1v1h1v3h1v1h-2v-1h-1v-1h1v-1h-1v1h-1v-1h-1v-4h-1v-1h-1v-1h-1v-3h-1v-1h5v1h-1v1h-1v1h1v1h1v5h1v-1 M10,1 v1h1v-1h-1 M11,10 h1v1h1v2h2v1h3v1h-3v1h-1v-1h-1v1h-2v-1h1v-1h-2v4h-2v-2h1v-2h-1v-1h-2v-1h2v-2h2v1h1v-1 M10,12 v1h2v-1h-2 M9,11 v1h1v-1h-1 M18,10 h3v4h-3v-2h-1v-1h1v-1 M19,12 v1h1v-1h-1 M4,11 h2v1h-1v1h-3v-1h-1v1h-1v-2h1v-2h-1v-1h2v3h1v1h1v-1 M12,17 h1v1h1v2h-1v1h-1v-2h-1v2h-3v-2h2v-1h2v-1 M19,18 h2v1h-1v2h-1v-1h-1v1h-3v-3h1v-1h1v-1h1v2h-1v1h2v-1 M6,8 v1h1v-1h-1 M20,8 v1h1v-1h-1 M3,10 v1h1v-1h-1 M6,10 v1h1v-1h-1 M18,15 v1h1v-1h-1 M13,16 v1h1v-1h-1 M15,16 v1h1v-1h-1 M3,8 h2v2h-1v-1h-1z M19,15 m1,0h1v2h-2v-1h1z" style="fill:#000000;stroke:none" ></path></svg>